{"title":"Transformers.Age.of.Extinction.2014.CamRip.Uploaded.by.{-KingBha","uid":10447021,"size":2349036426,"categoryP":"video","categoryS":"movies","magnet":"?xt=urn:btih:131a80bbef795ac253b09c451534c0862d5e4f44&amp;dn=Transformers.Age.of.Extinction.2014.CamRip.Uploaded.by.%7B-KingBha&amp;tr=udp%3A%2F%2Ftracker.openbittorrent.com%3A80&amp;tr=udp%3A%2F%2Fopen.demonii.com%3A1337&amp;tr=udp%3A%2F%2Ftracker.coppersurfer.tk%3A6969&amp;tr=udp%3A%2F%2Fexodus.desync.com%3A6969","seeders":2,"leechers":0,"uploader":"OnlyByTheRain","files":5,"time":1403976904,"description":" &lt;a href=&quot;http://www.flickeringmyth.com/wp-content/uploads/2014/06/Wd8cpuf-600x876.jpg&quot; rel=&quot;nofollow&quot; target=&quot;_NEW&quot;&gt;http://www.flickeringmyth.com/wp-content/uploads/2014/06/Wd8cpuf-600x876.jpg&lt;/a&gt;\nYear: 2014 \nProduction: United States | Paramount Pictures, Hasbro, Di Bonaventura Pictures \nGenre: Fantasy, Action, Adventure \n\nLanguage: English \nTranslation: None \n\nWorld Premiere Date: June 25, 2014 \nRussian premiere date: June 26, 2014, &quot;Central Partnership&quot; \nReleased DVD release: November 2014, &quot;New Disc&quot; \n\nDirector: Michael Bay \nProducer: Ian Bryce, Tom DeSanto, Lorenzo di Bonaventura \nStarring: Mark Wahlberg, Nicola Peltz, Jack Raynor, Stanley Tucci, Kelsey Grammer, Titus Welliver, \nTJ Miller, Li Bingbing, Sophia Myles, Peter Cullen \n\nFilm description: \nAutobots and Decepticons left the planet, leaving humanity to collect it piece by piece. Meanwhile, a group of powerful businessmen and \nbrilliant scientists trying to learn from past mistakes and improve technology to such an extent \nto go beyond previously controlled. At this time, another group - the ancient powerful Transformers - take in the sights of the Earth\n\nDuration: 2:27:23 \nVideo Quality: CamRip \n\nVideo: XviD, 720x304 (2.35:1), 29.970 fps, 1982 Kbps (0.302 bit / pixel) \nAudio: MP3, 44.1 KHz, 2 ch, 128 Kbps, CBR (English)\n\nMediaInfo\n\nComplete name Transformers.Age.of.Extinction.2014.CamRip.avi\nFormat : AVI\nFormat/Info : Audio Video Interleave\nFormat profile : OpenDML\nFile size : 2.19 GiB\nDuration : 2h 27mn\nOverall bit rate : 2 125 Kbps\nWriting application : VirtualDubMod 1.5.10.3 | (build 2550/release)\nWriting library : VirtualDubMod build 2550/release\n\nVideo\nID : 0\nFormat : MPEG-4 Visual\nFormat profile : Simple@L5\nFormat settings, BVOP : No\nFormat settings, QPel : No\nFormat settings, GMC : No warppoints\nFormat settings, Matrix : Default (H.263)\nCodec ID : XVID\nCodec ID/Hint : XviD\nDuration : 2h 27mn\nBit rate : 1 982 Kbps\nWidth : 720 pixels\nHeight : 304 pixels\nDisplay aspect ratio : 2.35:1\nFrame rate : 29.970 fps\nColor space : YUV\nChroma subsampling : 4:2:0\nBit depth : 8 bits\nScan type : Progressive\nCompression mode : Lossy\nBits/(Pixel*Frame) : 0.302\nStream size : 2.04 GiB (93%)\nWriting library : Lavc55.61.100\n\nAudio\nID : 1\nFormat : MPEG Audio\nFormat version : Version 1\nFormat profile : Layer 3\nMode : Joint stereo\nMode extension : MS Stereo\nCodec ID : 55\nCodec ID/Hint : MP3\nDuration : 2h 27mn\nBit rate mode : Constant\nBit rate : 128 Kbps\nChannel(s) : 2 channels\nSampling rate : 44.1 KHz\nCompression mode : Lossy\nStream size : 135 MiB (6%)\nAlignment : Split accross interleaves\nInterleave, duration : 33 ms (1.00 video frame)\nInterleave, preload duration : 500 ms\nWriting library : LAME3.99r\nEncoding settings : -m j -V 4 -q 3 -lowpass 17 -b 128\n\nScreenshots &lt;a href=&quot;\nhttp://i.imgur.com/UFnr0T7.jpg&quot; rel=&quot;nofollow&quot; target=&quot;_NEW&quot;&gt;\nhttp://i.imgur.com/UFnr0T7.jpg&lt;/a&gt; &lt;a href=&quot;\nhttp://i.imgur.com/HQQ1eps.jpg&quot; rel=&quot;nofollow&quot; target=&quot;_NEW&quot;&gt;\nhttp://i.imgur.com/HQQ1eps.jpg&lt;/a&gt; &lt;a href=&quot;\nhttp://i.imgur.com/qFKNUaL.jpg&quot; rel=&quot;nofollow&quot; target=&quot;_NEW&quot;&gt;\nhttp://i.imgur.com/qFKNUaL.jpg&lt;/a&gt;\n\n\nSpecial thanks to encoder/ripper/cracker comment and encourage me to upload more","torrent":{"xt":"urn:btih:131a80bbef795ac253b09c451534c0862d5e4f44","amp;dn":"Transformers.Age.of.Extinction.2014.CamRip.Uploaded.by.%7B-KingBha","amp;tr":["udp%3A%2F%2Ftracker.openbittorrent.com%3A80","udp%3A%2F%2Fopen.demonii.com%3A1337","udp%3A%2F%2Ftracker.coppersurfer.tk%3A6969","udp%3A%2F%2Fexodus.desync.com%3A6969"],"infoHash":"131a80bbef795ac253b09c451534c0862d5e4f44","infoHashBuffer":{"type":"Buffer","data":[19,26,128,187,239,121,90,194,83,176,156,69,21,52,192,134,45,94,79,68]},"announce":[],"urlList":[]}}